Coordinates
version=1
nRows=17
nColumns=40
inDegrees=yes

Units are S.I. units (second, meters, Newtons, ...)
Angles are in degrees.

endheader
time	pelvis_tilt	pelvis_list	pelvis_rotation	pelvis_tx	pelvis_ty	pelvis_tz	hip_flexion_r	hip_adduction_r	hip_rotation_r	knee_angle_r	knee_angle_r_beta	ankle_angle_r	subtalar_angle_r	mtp_angle_r	hip_flexion_l	hip_adduction_l	hip_rotation_l	knee_angle_l	knee_angle_l_beta	ankle_angle_l	subtalar_angle_l	mtp_angle_l	lumbar_extension	lumbar_bending	lumbar_rotation	arm_flex_r	arm_add_r	arm_rot_r	elbow_flex_r	pro_sup_r	wrist_flex_r	wrist_dev_r	arm_flex_l	arm_add_l	arm_rot_l	elbow_flex_l	pro_sup_l	wrist_flex_l	wrist_dev_l
     17.80750000	     -3.14617625	     -4.70792524	      5.13467428	      1.08084263	      0.92538511	      0.42693686	      5.72821319	     -2.54414582	    -12.78350077	     30.91356006	     30.91356006	     14.26174356	     -4.96200868	     -9.04851176	     24.06300117	     -5.02215613	      0.33156119	     26.35372259	     26.35372259	      8.61385493	    -12.71522563	      2.74056375	     -9.17181067	      2.56410911	      2.64355072	     22.07521279	    -14.28833560	      8.19619658	     78.63720119	     44.80863828	      0.00000000	      0.00000000	      3.93189509	    -10.52344342	    -16.20494031	     29.38500237	     45.92175553	      0.00000000	      0.00000000
     17.82085714	     -3.08660969	     -4.69056933	      4.82729834	      1.08076120	      0.92582503	      0.42399347	      7.34120658	     -3.20842495	    -12.22966323	     34.48887423	     34.48887423	     13.04348035	     -6.14235765	     -9.99644520	     23.57009124	     -4.99308751	     -0.13352180	     26.42146881	     26.42146881	      9.06086740	    -12.47830422	      2.50179829	     -9.14329415	      2.59068441	      2.93227334	     20.68925647	    -14.55163887	      8.42151931	     76.43575941	     44.87237060	      0.00000000	      0.00000000	      4.38142928	    -10.48911645	    -16.05038107	     29.86429536	     45.91085531	      0.00000000	      0.00000000
     17.83421429	     -3.05028021	     -4.70824935	      4.47064974	      1.08050921	      0.92618027	      0.42131682	      9.10097283	     -3.77376137	    -11.56920183	     38.12924835	     38.12924835	     11.53072608	     -7.56961830	    -10.98814040	     23.10234439	     -5.05199783	     -0.69972984	     26.47672741	     26.47672741	      9.52029427	    -12.05702850	      2.18483866	     -9.09840664	      2.64802504	      3.11056166	     19.49024140	    -14.61986466	      8.60961341	     73.54514073	     44.96168593	      0.00000000	      0.00000000	      4.76229580	    -10.52273112	    -15.78171115	     30.36997736	     45.88427524	      0.00000000	      0.00000000
     17.84757143	     -2.84841610	     -4.73847518	      4.17033516	      1.08021381	      0.92665580	      0.41885416	     10.67190531	     -4.21173990	    -10.88365683	     41.56671065	     41.56671065	      9.39212912	     -9.47908134	    -13.10559962	     22.50112557	     -5.19240465	     -1.41035264	     26.60485981	     26.60485981	     10.09501927	    -11.32951517	      1.66437848	     -9.16600553	      2.70402899	      2.22267582	     19.73330647	    -13.52844936	      9.05342814	     67.67484869	     45.15639020	      0.00000000	      0.00000000	      4.35839330	    -10.98604224	    -14.59008410	     31.39980464	     45.74672454	      0.00000000	      0.00000000
     17.86092857	     -2.71688817	     -4.59302193	      3.83015731	      1.07973279	      0.92692333	      0.41642411	     12.49561229	     -4.93109374	    -10.34199670	     45.28952382	     45.28952382	      8.00066979	    -10.47331053	    -13.14634059	     21.90238119	     -5.08820064	     -2.02242918	     26.61396824	     26.61396824	     10.53384820	    -10.96164277	      1.36692116	     -9.33881334	      2.59154172	      2.33861180	     18.23710671	    -13.79190156	      9.33558118	     66.10674623	     45.19350848	      0.00000000	      0.00000000	      4.89661087	    -11.11064641	    -14.48193581	     31.89995021	     45.74625759	      0.00000000	      0.00000000
     17.87428571	     -2.57834812	     -4.67447829	      3.54088851	      1.07911491	      0.92723346	      0.41439011	     14.33080935	     -5.20455742	     -9.67819083	     48.81166779	     48.81166779	      6.98326624	    -11.57320779	    -11.64023806	     21.40467735	     -5.36949228	     -2.96485545	     26.75366323	     26.75366323	     11.11780746	     -9.73711943	      0.68752182	     -9.37560198	      2.67177969	      1.90323776	     17.85727704	    -13.19720687	      9.41249740	     60.88988332	     45.36908006	      0.00000000	      0.00000000	      5.07918187	    -11.51305443	    -13.38912377	     32.63741270	     45.64288297	      0.00000000	      0.00000000
     17.88764286	     -2.43679380	     -4.50367901	      3.24334673	      1.07842088	      0.92752836	      0.41227984	     16.13993335	     -5.85081960	     -9.22173440	     52.11030691	     52.11030691	      5.75330449	    -12.34384109	    -11.27902540	     20.77968408	     -5.23618229	     -3.56512437	     26.69067096	     26.69067096	     11.50868887	     -9.35618427	      0.44923038	     -9.58133530	      2.54228381	      1.87445164	     16.36279388	    -13.39114243	      9.60584377	     59.43708310	     45.40426397	      0.00000000	      0.00000000	      5.59930910	    -11.69937292	    -13.29036843	     33.02722588	     45.64451232	      0.00000000	      0.00000000
     17.90100000	     -2.26657110	     -4.63491684	      2.94931331	      1.07766759	      0.92795043	      0.41070437	     17.88968218	     -5.96483336	     -8.70879729	     55.08256358	     55.08256358	      5.40151651	    -12.86328735	     -8.42691761	     20.23901858	     -5.63258097	     -4.60924284	     26.80494093	     26.80494093	     12.17834966	     -7.84251339	     -0.22322724	     -9.68434179	      2.64114045	      1.86189593	     15.71981239	    -13.10214358	      9.35172349	     54.48023289	     45.58063812	      0.00000000	      0.00000000	      6.26853939	    -11.95587780	    -12.32285556	     33.34162921	     45.56248644	      0.00000000	      0.00000000
     17.91435714	     -2.17155862	     -4.44055223	      2.74763428	      1.07676606	      0.92839967	      0.40882445	     19.59132583	     -6.54254684	     -8.38660581	     57.57332239	     57.57332239	      4.59959060	    -13.31138158	     -7.95144234	     19.61698041	     -5.42979572	     -5.12601683	     26.58369272	     26.58369272	     12.49448635	     -7.46834468	     -0.34882165	     -9.84386738	      2.45185846	      1.41053515	     14.16394996	    -13.19554370	      9.43788192	     53.13542382	     45.61515933	      0.00000000	      0.00000000	      6.80503942	    -12.27822970	    -12.20846644	     33.60158370	     45.56328605	      0.00000000	      0.00000000
     17.92771429	     -2.03759173	     -4.47660560	      2.51320086	      1.07585430	      0.92905007	      0.40736680	     21.26686805	     -6.77107118	     -8.09170058	     59.81487277	     59.81487277	      5.36664014	    -12.83187623	     -3.42969443	     18.99552624	     -5.61183440	     -5.93667520	     26.44890423	     26.44890423	     13.06405500	     -6.36415375	     -0.55145243	     -9.91424984	      2.49409657	      0.95604247	     13.96506175	    -12.44699477	      8.42265956	     47.35901028	     45.84259567	      0.00000000	      0.00000000	      7.41668048	    -12.79826957	    -10.44916691	     33.47979351	     45.42459845	      0.00000000	      0.00000000
     17.94107143	     -1.92781495	     -4.44397218	      2.36520839	      1.07489221	      0.92978785	      0.40584144	     22.69116325	     -7.06767059	     -7.92890190	     61.17465446	     61.17465446	      4.84733317	    -13.08469464	     -3.23955506	     18.32101396	     -5.56261855	     -6.31692956	     26.10893778	     26.10893778	     13.37365452	     -5.96690813	     -0.66886305	    -10.10408839	      2.45231864	      0.55787742	     12.22746759	    -12.78171370	      8.47211937	     46.26287558	     45.86745555	      0.00000000	      0.00000000	      8.06353321	    -13.05672590	    -10.39626956	     33.80852638	     45.43537623	      0.00000000	      0.00000000
     17.95442857	     -1.83890500	     -4.42947357	      2.12149592	      1.07388759	      0.93064184	      0.40458659	     24.06006355	     -7.25252912	     -7.67842149	     62.00551299	     62.00551299	      4.55401864	    -13.12172487	     -2.85099131	     17.59495966	     -5.58721467	     -6.90575192	     25.66056350	     25.66056350	     13.70910471	     -5.31864431	     -0.87156843	    -10.24978599	      2.43683438	      0.64911842	     10.63439482	    -13.22311418	      8.41393111	     44.38490940	     45.92604478	      0.00000000	      0.00000000	      9.03317703	    -13.06845555	    -10.14161433	     34.10366620	     45.42950064	      0.00000000	      0.00000000
     17.96778571	     -1.69913586	     -4.54094558	      1.95711356	      1.07289363	      0.93166086	      0.40352019	     25.21856142	     -7.27862470	     -7.58291317	     62.27248075	     62.27248075	      4.77884825	    -12.77740945	     -1.35106178	     16.86837031	     -5.75833626	     -7.43150906	     25.26377870	     25.26377870	     13.92865600	     -4.59648977	     -1.31689660	    -10.37177976	      2.54682508	      0.35282474	      9.98063192	    -12.89013414	      7.03018611	     39.86988159	     46.13422090	      0.00000000	      0.00000000	     10.23201833	    -13.45695504	     -8.49678935	     33.03740224	     45.30802436	      0.00000000	      0.00000000
     17.98114286	     -1.61138730	     -4.57813231	      1.76459137	      1.07182833	      0.93270914	      0.40249956	     26.25042433	     -7.34884274	     -7.46494042	     61.83094005	     61.83094005	      4.60147061	    -12.47638178	     -1.26090480	     16.08905546	     -5.73339581	     -7.67990819	     24.64826165	     24.64826165	     14.09594663	     -4.42109021	     -1.34077646	    -10.56196481	      2.57886875	      0.21271527	      8.29305931	    -13.35392936	      6.81660814	     38.58310439	     46.17602317	      0.00000000	      0.00000000	     11.05776549	    -13.54203721	     -8.27296358	     33.48303767	     45.30948314	      0.00000000	      0.00000000
     17.99450000	     -1.62070408	     -4.70358701	      1.60100791	      1.07067048	      0.93354506	      0.40167379	     27.22683417	     -7.27039792	     -7.38992384	     60.77407685	     60.77407685	      4.41359890	    -12.13767993	     -1.15219243	     15.53820409	     -5.80595893	     -7.81107881	     24.23029499	     24.23029499	     14.28974850	     -4.34460830	     -1.36732050	    -10.63578790	      2.70884768	     -0.45683003	      6.82727463	    -13.72000214	      6.75168206	     37.77834859	     46.19866264	      0.00000000	      0.00000000	     11.59970598	    -13.86446981	     -8.23514368	     33.68892224	     45.31812725	      0.00000000	      0.00000000
     18.00785714	     -1.51647466	     -4.75173250	      1.34742533	      1.06963233	      0.93473071	      0.40101095	     27.85616140	     -7.20927428	     -7.25221223	     59.00532589	     59.00532589	      3.98351680	    -11.68702818	     -1.74774970	     14.56728583	     -5.75418362	     -7.99129083	     23.25415300	     23.25415300	     13.92755537	     -4.47199198	     -2.33494616	    -10.81157194	      2.73343014	     -0.12456888	      5.79279144	    -13.69883038	      4.82730915	     34.00995804	     46.41124891	      0.00000000	      0.00000000	     13.07172224	    -13.90792955	     -6.19223821	     33.15016276	     45.17072974	      0.00000000	      0.00000000
     18.02121429	     -1.49452832	     -4.81278834	      1.09688901	      1.06851455	      0.93563852	      0.40052105	     28.42633748	     -7.08349908	     -7.11354442	     56.73381162	     56.73381162	      3.75010311	    -11.03911304	     -1.66103497	     13.83755675	     -5.74501824	     -8.15971031	     22.58595115	     22.58595115	     14.00365962	     -4.46789915	     -2.33557221	    -10.97767843	      2.77244299	     -0.23849799	      4.19005177	    -14.19322558	      4.54546557	     33.14465899	     46.44165374	      0.00000000	      0.00000000	     13.82987660	    -13.96723474	     -6.01682762	     33.81478439	     45.17964126	      0.00000000	      0.00000000
